<!DOCTYPE svg PUBLIC "-//W3C//DTD SVG 1.1//EN" "http://www.w3.org/Graphics/SVG/1.1/DTD/svg11.dtd">
<!-- Uploaded to: SVG Repo, www.svgrepo.com, Transformed by: SVG Repo Mixer Tools -->
<svg width="256px" height="256px" viewBox="-2.4 -2.4 28.80 28.80" xmlns="http://www.w3.org/2000/svg" fill="#000000" stroke="#000000" stroke-width="0.00024000000000000003" transform="matrix(1, 0, 0, 1, 0, 0)rotate(0)">
<g id="SVGRepo_bgCarrier" stroke-width="0" transform="translate(0,0), scale(1)">
<path transform="translate(-2.4, -2.4), scale(1.7999999999999998)" fill="#dceaef" d="M9.166.33a2.25 2.25 0 00-2.332 0l-5.25 3.182A2.25 2.25 0 00.5 5.436v5.128a2.25 2.25 0 001.084 1.924l5.25 3.182a2.25 2.25 0 002.332 0l5.25-3.182a2.25 2.25 0 001.084-1.924V5.436a2.25 2.25 0 00-1.084-1.924L9.166.33z" strokewidth="0"/>
</g>
<g id="SVGRepo_tracerCarrier" stroke-linecap="round" stroke-linejoin="round" stroke="#CCCCCC" stroke-width="0.048"/>
<g id="SVGRepo_iconCarrier">
<rect width="24" height="24" fill="none"/>
<path d="M20,6H4A2,2,0,0,0,2,8v8a2,2,0,0,0,2,2H20a2,2,0,0,0,2-2V8A2,2,0,0,0,20,6ZM9.29,14.8,9,13.73H7.16L6.87,14.8H5.17L7,9.07H9.09L11,14.8Zm6.34-3.14a1.7,1.7,0,0,1-.36.64,1.82,1.82,0,0,1-.67.44,2.75,2.75,0,0,1-1,.17h-.44V14.8H11.6V9.09h2a2.43,2.43,0,0,1,1.62.47,1.67,1.67,0,0,1,.55,1.35A2.36,2.36,0,0,1,15.63,11.66Zm2.58,3.14H16.66V9.09h1.55ZM8.45,11.53l.24.93H7.48l.24-.93c0-.13.08-.28.12-.47s.09-.38.13-.57a4.63,4.63,0,0,0,.1-.48c0,.13.07.29.11.5l.15.58Zm5.59-1a.57.57,0,0,1,.16.43.75.75,0,0,1-.11.42.59.59,0,0,1-.27.22.9.9,0,0,1-.37.07h-.31V10.34h.4A.63.63,0,0,1,14,10.51Z" fill-rule="evenodd"/>
</g>
</svg>